<mxfile host="app.diagrams.net" modified="2024-04-03T06:36:17.786Z" agent="Mozilla/5.0 (Windows NT 10.0; Win64; x64) AppleWebKit/537.36 (KHTML, like Gecko) Chrome/123.0.0.0 Safari/537.36" etag="4WFLc_G1LgE-jmxheT3B" version="24.2.1" type="github">
  <diagram name="페이지-1" id="mK4iKA8kQipGFLqW3BOR">
    <mxGraphModel dx="1050" dy="1691" grid="1" gridSize="10" guides="1" tooltips="1" connect="1" arrows="1" fold="1" page="1" pageScale="1" pageWidth="827" pageHeight="1169" math="0" shadow="0">
      <root>
        <mxCell id="0" />
        <mxCell id="1" parent="0" />
        <mxCell id="bpgjlUp_g7XKBeZLaFPo-3" value="" style="rounded=0;orthogonalLoop=1;jettySize=auto;html=1;endArrow=none;endFill=0;" edge="1" parent="1" source="bpgjlUp_g7XKBeZLaFPo-1" target="bpgjlUp_g7XKBeZLaFPo-2">
          <mxGeometry relative="1" as="geometry" />
        </mxCell>
        <mxCell id="bpgjlUp_g7XKBeZLaFPo-1" value="회원" style="shape=umlActor;verticalLabelPosition=bottom;verticalAlign=top;html=1;outlineConnect=0;" vertex="1" parent="1">
          <mxGeometry x="130" y="70" width="30" height="60" as="geometry" />
        </mxCell>
        <mxCell id="bpgjlUp_g7XKBeZLaFPo-15" value="" style="rounded=0;orthogonalLoop=1;jettySize=auto;html=1;startArrow=block;startFill=0;endArrow=none;endFill=0;" edge="1" parent="1" source="bpgjlUp_g7XKBeZLaFPo-9" target="bpgjlUp_g7XKBeZLaFPo-10">
          <mxGeometry relative="1" as="geometry">
            <mxPoint x="150" y="210" as="targetPoint" />
          </mxGeometry>
        </mxCell>
        <mxCell id="bpgjlUp_g7XKBeZLaFPo-16" style="rounded=0;orthogonalLoop=1;jettySize=auto;html=1;exitX=1;exitY=0.3333333333333333;exitDx=0;exitDy=0;exitPerimeter=0;endArrow=none;endFill=0;startArrow=block;startFill=0;" edge="1" parent="1" source="bpgjlUp_g7XKBeZLaFPo-9" target="bpgjlUp_g7XKBeZLaFPo-1">
          <mxGeometry relative="1" as="geometry" />
        </mxCell>
        <mxCell id="bpgjlUp_g7XKBeZLaFPo-9" value="구매자" style="shape=umlActor;verticalLabelPosition=bottom;verticalAlign=top;html=1;outlineConnect=0;" vertex="1" parent="1">
          <mxGeometry x="40" y="180" width="30" height="60" as="geometry" />
        </mxCell>
        <mxCell id="bpgjlUp_g7XKBeZLaFPo-13" value="" style="rounded=0;orthogonalLoop=1;jettySize=auto;html=1;endArrow=none;endFill=0;" edge="1" parent="1" source="bpgjlUp_g7XKBeZLaFPo-10" target="bpgjlUp_g7XKBeZLaFPo-8">
          <mxGeometry relative="1" as="geometry" />
        </mxCell>
        <mxCell id="bpgjlUp_g7XKBeZLaFPo-10" value="비회원" style="shape=umlActor;verticalLabelPosition=bottom;verticalAlign=top;html=1;outlineConnect=0;" vertex="1" parent="1">
          <mxGeometry x="130" y="240" width="30" height="60" as="geometry" />
        </mxCell>
        <mxCell id="bpgjlUp_g7XKBeZLaFPo-17" style="rounded=0;orthogonalLoop=1;jettySize=auto;html=1;exitX=0.5;exitY=0.5;exitDx=0;exitDy=0;exitPerimeter=0;endArrow=none;endFill=0;" edge="1" parent="1" source="bpgjlUp_g7XKBeZLaFPo-11" target="bpgjlUp_g7XKBeZLaFPo-6">
          <mxGeometry relative="1" as="geometry" />
        </mxCell>
        <mxCell id="bpgjlUp_g7XKBeZLaFPo-11" value="관리자" style="shape=umlActor;verticalLabelPosition=bottom;verticalAlign=top;html=1;outlineConnect=0;" vertex="1" parent="1">
          <mxGeometry x="720" y="40" width="30" height="60" as="geometry" />
        </mxCell>
        <mxCell id="bpgjlUp_g7XKBeZLaFPo-12" value="PG" style="shape=umlActor;verticalLabelPosition=bottom;verticalAlign=top;html=1;outlineConnect=0;" vertex="1" parent="1">
          <mxGeometry x="650" y="120" width="30" height="60" as="geometry" />
        </mxCell>
        <mxCell id="bpgjlUp_g7XKBeZLaFPo-21" style="rounded=0;orthogonalLoop=1;jettySize=auto;html=1;exitX=1;exitY=0.3333333333333333;exitDx=0;exitDy=0;exitPerimeter=0;entryX=0.071;entryY=0.857;entryDx=0;entryDy=0;entryPerimeter=0;endArrow=none;endFill=0;" edge="1" parent="1" source="bpgjlUp_g7XKBeZLaFPo-10" target="bpgjlUp_g7XKBeZLaFPo-2">
          <mxGeometry relative="1" as="geometry" />
        </mxCell>
        <mxCell id="bpgjlUp_g7XKBeZLaFPo-25" style="rounded=0;orthogonalLoop=1;jettySize=auto;html=1;exitX=0;exitY=0.3333333333333333;exitDx=0;exitDy=0;exitPerimeter=0;entryX=0.966;entryY=0.246;entryDx=0;entryDy=0;entryPerimeter=0;endArrow=none;endFill=0;" edge="1" parent="1" source="bpgjlUp_g7XKBeZLaFPo-12" target="bpgjlUp_g7XKBeZLaFPo-5">
          <mxGeometry relative="1" as="geometry" />
        </mxCell>
        <mxCell id="bpgjlUp_g7XKBeZLaFPo-27" style="rounded=0;orthogonalLoop=1;jettySize=auto;html=1;exitX=1;exitY=1;exitDx=0;exitDy=0;exitPerimeter=0;entryX=0.017;entryY=0.411;entryDx=0;entryDy=0;entryPerimeter=0;endArrow=none;endFill=0;" edge="1" parent="1" source="bpgjlUp_g7XKBeZLaFPo-1" target="bpgjlUp_g7XKBeZLaFPo-4">
          <mxGeometry relative="1" as="geometry" />
        </mxCell>
        <mxCell id="bpgjlUp_g7XKBeZLaFPo-28" value="온라인 쇼핑몰" style="swimlane;whiteSpace=wrap;html=1;fillColor=#dae8fc;strokeColor=#6c8ebf;" vertex="1" parent="1">
          <mxGeometry x="210" y="-60" width="430" height="530" as="geometry" />
        </mxCell>
        <mxCell id="bpgjlUp_g7XKBeZLaFPo-8" value="회원가입" style="ellipse;whiteSpace=wrap;html=1;fillColor=#f5f5f5;strokeColor=#666666;fontColor=#333333;shadow=1;" vertex="1" parent="bpgjlUp_g7XKBeZLaFPo-28">
          <mxGeometry x="40" y="410" width="140" height="70" as="geometry" />
        </mxCell>
        <mxCell id="bpgjlUp_g7XKBeZLaFPo-6" value="회원관리" style="ellipse;whiteSpace=wrap;html=1;fillColor=#f5f5f5;strokeColor=#666666;fontColor=#333333;shadow=1;" vertex="1" parent="bpgjlUp_g7XKBeZLaFPo-28">
          <mxGeometry x="210" y="100" width="140" height="70" as="geometry" />
        </mxCell>
        <mxCell id="bpgjlUp_g7XKBeZLaFPo-7" value="주소입력" style="ellipse;whiteSpace=wrap;html=1;fillColor=#f5f5f5;strokeColor=#666666;fontColor=#333333;shadow=1;" vertex="1" parent="bpgjlUp_g7XKBeZLaFPo-28">
          <mxGeometry x="260" y="310" width="140" height="70" as="geometry" />
        </mxCell>
        <mxCell id="bpgjlUp_g7XKBeZLaFPo-2" value="상품 보기" style="ellipse;whiteSpace=wrap;html=1;fillColor=#f5f5f5;strokeColor=#666666;fontColor=#333333;shadow=1;" vertex="1" parent="bpgjlUp_g7XKBeZLaFPo-28">
          <mxGeometry x="40" y="100" width="140" height="70" as="geometry" />
        </mxCell>
        <mxCell id="bpgjlUp_g7XKBeZLaFPo-4" value="구매" style="ellipse;whiteSpace=wrap;html=1;fillColor=#f5f5f5;strokeColor=#666666;fontColor=#333333;shadow=1;" vertex="1" parent="bpgjlUp_g7XKBeZLaFPo-28">
          <mxGeometry x="40" y="200" width="140" height="70" as="geometry" />
        </mxCell>
        <mxCell id="bpgjlUp_g7XKBeZLaFPo-19" value="&amp;lt;&amp;lt;include&amp;gt;&amp;gt;" style="edgeStyle=orthogonalEdgeStyle;rounded=0;orthogonalLoop=1;jettySize=auto;html=1;exitX=0.5;exitY=0;exitDx=0;exitDy=0;entryX=0.5;entryY=1;entryDx=0;entryDy=0;dashed=1;endArrow=open;endFill=0;labelPosition=right;verticalLabelPosition=middle;align=left;verticalAlign=middle;fontStyle=1" edge="1" parent="bpgjlUp_g7XKBeZLaFPo-28" source="bpgjlUp_g7XKBeZLaFPo-4" target="bpgjlUp_g7XKBeZLaFPo-2">
          <mxGeometry relative="1" as="geometry" />
        </mxCell>
        <mxCell id="bpgjlUp_g7XKBeZLaFPo-5" value="결제" style="ellipse;whiteSpace=wrap;html=1;fillColor=#f5f5f5;strokeColor=#666666;fontColor=#333333;shadow=1;" vertex="1" parent="bpgjlUp_g7XKBeZLaFPo-28">
          <mxGeometry x="40" y="310" width="140" height="70" as="geometry" />
        </mxCell>
        <mxCell id="bpgjlUp_g7XKBeZLaFPo-20" value="&amp;lt;&amp;lt;include&amp;gt;&amp;gt;" style="edgeStyle=orthogonalEdgeStyle;rounded=0;orthogonalLoop=1;jettySize=auto;html=1;exitX=0.5;exitY=1;exitDx=0;exitDy=0;entryX=0.5;entryY=0;entryDx=0;entryDy=0;dashed=1;endArrow=open;endFill=0;labelPosition=right;verticalLabelPosition=middle;align=left;verticalAlign=middle;fontStyle=1" edge="1" parent="bpgjlUp_g7XKBeZLaFPo-28" source="bpgjlUp_g7XKBeZLaFPo-4" target="bpgjlUp_g7XKBeZLaFPo-5">
          <mxGeometry relative="1" as="geometry" />
        </mxCell>
        <mxCell id="bpgjlUp_g7XKBeZLaFPo-22" value="&amp;lt;&amp;lt;extend&amp;gt;&amp;gt;" style="edgeStyle=orthogonalEdgeStyle;rounded=0;orthogonalLoop=1;jettySize=auto;html=1;dashed=1;endArrow=open;endFill=0;verticalAlign=bottom;fontStyle=1" edge="1" parent="bpgjlUp_g7XKBeZLaFPo-28" source="bpgjlUp_g7XKBeZLaFPo-7" target="bpgjlUp_g7XKBeZLaFPo-5">
          <mxGeometry relative="1" as="geometry" />
        </mxCell>
      </root>
    </mxGraphModel>
  </diagram>
</mxfile>
